<?xml version="1.0" encoding="utf-8"?>
<!-- Generator: Adobe Illustrator 22.1.0, SVG Export Plug-In . SVG Version: 6.00 Build 0)  -->
<svg version="1.1" id="Layer_1" xmlns="http://www.w3.org/2000/svg" xmlns:xlink="http://www.w3.org/1999/xlink" x="0px" y="0px"
	 viewBox="0 0 393.7 346.8" style="enable-background:new 0 0 393.7 346.8;" xml:space="preserve">
<style type="text/css">
	.st0{enable-background:new    ;}
	.st1{clip-path:url(#SVGID_2_);fill:#FFFFFF;}
	.st2{fill:#230871;}
	.st3{fill:#FFF5D2;}
	.st4{filter:url(#Adobe_OpacityMaskFilter);}
	.st5{clip-path:url(#SVGID_4_);fill:url(#SVGID_6_);}
	.st6{clip-path:url(#SVGID_4_);mask:url(#SVGID_5_);fill:url(#SVGID_7_);}
	.st7{fill:#B5121B;}
	.st8{fill-rule:evenodd;clip-rule:evenodd;fill:#B5121B;}
	.st9{fill-rule:evenodd;clip-rule:evenodd;fill:#230871;}
	.st10{fill:#FFFFFF;}
</style>
<g>
	<g class="st0">
		<g>
			<defs>
				<rect id="SVGID_1_" x="3.2" y="3.2" width="387.2" height="269.5"/>
			</defs>
			<clipPath id="SVGID_2_">
				<use xlink:href="#SVGID_1_"  style="overflow:visible;"/>
			</clipPath>
			<path class="st1" d="M390.5,138c0,74.4-86.7,134.7-193.6,134.7C89.9,272.7,3.2,212.4,3.2,138C3.2,63.6,89.9,3.2,196.9,3.2
				C303.8,3.2,390.5,63.6,390.5,138"/>
		</g>
	</g>
	<path class="st2" d="M58.1,40C20.6,66.1,0,100.9,0,138c0,37.1,20.6,71.9,58.1,97.9c37.1,25.8,86.4,40,138.8,40
		c52.4,0,101.6-14.2,138.8-40c37.5-26.1,58.1-60.9,58.1-97.9c0-37.1-20.6-71.9-58.1-97.9C298.5,14.2,249.2,0,196.9,0
		C144.5,0,95.2,14.2,58.1,40 M6.5,138C6.5,65.5,91.9,6.5,196.9,6.5c105,0,190.4,59,190.4,131.5c0,72.5-85.4,131.5-190.4,131.5
		C91.9,269.5,6.5,210.5,6.5,138"/>
	<path class="st3" d="M188.9,205.2c64-0.3,129.5-14.7,129.5-26.5c0-11.9-70.8-28.8-129.5-29.2C128.3,149,74.1,167.2,74.1,179
		C74.1,190.9,137.2,205.4,188.9,205.2"/>
	<g>
		<defs>
			<path id="SVGID_3_" d="M254.7,159.7c20.3,10,29.8,18.5,37.7,32.9c15.9-4.4,25.9-9.4,25.9-14c0-9.1-41.5-21.1-87.3-26.5
				C235.5,153.4,249.9,157.3,254.7,159.7 M74.1,179c0,4.1,7.4,8.4,19.2,12.4l0.7-1.1c5.6-8.9,18-24.4,39.9-33.7
				c3.6-2,11.9-4,15.2-4.9C106.4,156.9,74.1,169.9,74.1,179 M189.6,149.5c12.6,0.4,17.1,2.7,21,5.7c8,6.2,15,33,17.2,48.1
				c12.5-1.1,24.5-2.6,35.5-4.4c-3.6-13.6-29.2-42.9-41.7-47.8c-10.7-1-21.5-1.6-31.9-1.7C189.7,149.5,189.7,149.5,189.6,149.5
				 M162.5,150.4c-0.8,0.2-1.4,0.4-1.9,0.6c-8.6,2.8-33.9,20.7-42.2,47c10.4,2.1,21.9,3.9,33.7,5.2c1.8-15.4,7.2-40.4,17.2-48.2
				c1.8-1.4,4.8-4,16.3-5.5c0,0,0,0-0.1-0.1C177.6,149.4,169.9,149.8,162.5,150.4"/>
		</defs>
		<clipPath id="SVGID_4_">
			<use xlink:href="#SVGID_3_"  style="overflow:visible;"/>
		</clipPath>
		<defs>
			<filter id="Adobe_OpacityMaskFilter" filterUnits="userSpaceOnUse" x="74.1" y="149.4" width="244.3" height="54">
				<feColorMatrix  type="matrix" values="1 0 0 0 0  0 1 0 0 0  0 0 1 0 0  0 0 0 1 0"/>
			</filter>
		</defs>
		<mask maskUnits="userSpaceOnUse" x="74.1" y="149.4" width="244.3" height="54" id="SVGID_5_">
			<g class="st4">
				
					<linearGradient id="SVGID_6_" gradientUnits="userSpaceOnUse" x1="-88.2856" y1="586.5899" x2="-85.3462" y2="586.5899" gradientTransform="matrix(0 -18.3546 -18.3546 0 10962.8242 -1417.0928)">
					<stop  offset="0" style="stop-color:#FFFFFF"/>
					<stop  offset="0.1984" style="stop-color:#F8F8F8"/>
					<stop  offset="0.4798" style="stop-color:#E6E6E6"/>
					<stop  offset="0.8093" style="stop-color:#C7C7C7"/>
					<stop  offset="1" style="stop-color:#B3B3B3"/>
				</linearGradient>
				<rect x="74.1" y="149.4" class="st5" width="244.3" height="54"/>
			</g>
		</mask>
		
			<linearGradient id="SVGID_7_" gradientUnits="userSpaceOnUse" x1="-88.2856" y1="586.5899" x2="-85.3462" y2="586.5899" gradientTransform="matrix(0 -18.3546 -18.3546 0 10962.8242 -1417.0928)">
			<stop  offset="0" style="stop-color:#FFE674"/>
			<stop  offset="9.385466e-02" style="stop-color:#FFDE70"/>
			<stop  offset="0.2271" style="stop-color:#F7CC66"/>
			<stop  offset="0.384" style="stop-color:#ECB057"/>
			<stop  offset="0.5588" style="stop-color:#DE8D44"/>
			<stop  offset="0.7485" style="stop-color:#CD6330"/>
			<stop  offset="0.9479" style="stop-color:#BA2A1E"/>
			<stop  offset="1" style="stop-color:#B5121B"/>
		</linearGradient>
		<rect x="74.1" y="149.4" class="st6" width="244.3" height="54"/>
	</g>
	<path class="st2" d="M166.3,100.6c-0.5,1.7-1.5,3.4-1.7,5.1c2.1,0.4,6.1,0.1,6.6,2.8c-1,3.9-4.8,1.3-7.1,1.9
		c-0.6,0.6,0,0.8-0.5,1.4c-1.9,8.1-1.7,18.5-1.4,26.7c0,1.5-0.7,3.7-3.2,3.4c-2.7-0.3-2.2-4.9-2.5-7.7c-0.7-6.8,1.2-16.4,2.3-23.6
		c-5.7-0.6-10.8,2-16.4,2.5c-0.8-0.5-0.7-0.6-0.9-1.2c0.6-2.3,3.3-3.1,5.1-4.1c4.2-1.1,8.3-2.1,12.8-2.2c1.2-3.2,2.5-7,5.9-8.5
		C167.4,97.4,166.9,99,166.3,100.6"/>
	<path class="st2" d="M89,117.2c-0.6,4-3.6,2.2-7.3,4.7c-11,5.7-16.6,17.1-17.7,28.5c0.2,3.7,1.9,9.5,4.7,9.4
		c7.7,0.4,11.2-10.4,13.2-16.5c-3.3,2-10.1,8.7-11.5,4.7c-0.3-1.6,0.3-2.8,1.2-4c5.1-3.6,10.3-7.9,15.8-11.1c0.8-0.2,1.5,0.3,1.7,1
		c-1.7,6.9-1.6,14.9-1.9,22.2c-1,1.3-3.3,3.3-4.3,2.4c-0.3-0.5-0.4-1.1-0.7-1.9c-4.1,5.3-10.5,11.8-17.7,9.4
		c-3.9-1.7-5.9-5.2-6.7-9.3c-0.8-3.9-0.6-8.4,0.1-12.4c2.5-13.8,13.8-26.9,27.8-29.7C87.5,114.5,88.9,115.5,89,117.2"/>
	<path class="st2" d="M110.9,121.6c1.6,4.8-3.1,5.6-7.7,8.6c-7.7,4.3-6,15.7-8,23.4c-0.4,1.2-1.8,1.4-3,1.4
		c-1.9-0.4-1.9-2.8-1.9-4.5c0.8-8.1,0.1-16.2,2.4-23.3c0.5-1.2,1.7-1.1,2.6-0.7c1.5,0.9,1.4,2.4,2.1,3.5c3-3.9,6.8-8.4,11.5-10.1
		C110.3,119.5,110.5,121,110.9,121.6"/>
	<path class="st2" d="M150.2,116.3c0.3,1.1-0.4,2-1.2,2.3c-7.3,2.5-14.4,9-15.6,17c-0.1,1.2-0.6,2,0.7,3c2.8,0.3,7.3-5.2,7.3-5.2
		c3.8-4,2.9-9.9,7.1-13.7c0.3-0.4,1.3-1.1,2.8,0.5c0.6,0.4-1.3,7.3-1.9,10.9c-0.9,4.6,0.5,13.6-4,11c-0.8-1.1-1.1-2.8-1.2-4.2
		c-2.8,3.3-6.3,6.5-10.4,7.3c-2.1-0.1-4.3-0.4-5.4-2.4c-5.7,4.4-13.4,10.1-21,5.4c-5.1-5.6-1.5-13.9,1.6-18.6
		c4.2-6.1,9.6-11.4,16.5-10.6c2,0.8,3.4,2.4,3.8,4.5c-0.9,6.7-7.5,11.9-13.7,13.7c-1.7,0.4-2.3-0.5-3.1-1.7c0,0-3.1,7.3-0.4,8.7
		c1.8,2.3,5.3,0,7.3-0.7c4.2-2.8,8.2-4.6,8.4-9.4c2.3-8.9,8.8-17.6,18.4-19.3C148,114.7,149.4,115.1,150.2,116.3 M113.9,132.6
		c3.8-2.2,9-4,10.4-8.7C119.5,124,116.1,128.9,113.9,132.6"/>
	<path class="st2" d="M233,98.9c-0.6,3.1-2.8,7.4-3.8,9.7c-3.1,9.8-5.5,20-5.9,30.9c-0.3,0.9-1.1,1.6-2.1,1.7
		c-0.7,0.2-1.1-0.1-1.7-0.5c-2.1-2.7-1-7.1-0.9-10.4c0.6-3.2,1.4-10.2,1.4-10.2c-3.2,0.8-6.1,1.5-9.3,2.6c-1,6-1.4,12-2.4,17.7
		c-0.6,1.5-1.6,0.6-2.4,0.9c-3.2-4.4-0.6-17-0.6-17c-1-0.4-2.6,0.9-3-0.2c-0.8-1.6,0.2-3.2,1.7-4c0.5-0.6,0.9-0.1,1.9-0.9
		c1.3-5.8,3.5-14.8,5.9-19.8c1.1-1.7,2.8-2.2,4.5-1.6c1.8,3.3-2.5,9.7-2.9,12.9c-0.6,2-1.3,4-1.7,6.1c3-0.3,6.3-1.2,9.4-1.9
		c0.7-1.8,1.1-4,1.8-5.7c1.4-4.1,3-10.9,7.1-12.6C231.4,96.8,233,97.3,233,98.9"/>
	<path class="st2" d="M273,118.2l0.4,0.8l0,0.9c-0.8,2.3-2.9,1.9-4.5,2.7c-8.9,3.2-11.9,12.5-13.7,20.7c-0.4,1.1-1,1.6-2.1,1.9
		c-3.7-0.1-1.8-5.2-1.7-7.3c1-5.3,2.7-10.9,4-16.3c0.5-1.8,2.5-2,3.8-1.7c0.8,0,0.8,1.6,0.7,2.6c1.2-0.6,2.7-1.7,4.7-2.9
		c2.5-1.2,4.5-2.6,7.7-1.9L273,118.2z"/>
	<path class="st2" d="M290,118.9c0.9,0.9,0.9,1.7,0.7,2.9c-4.3,4.9-7,3.8-14.1,13.7c-3.2,4.6-5.9,9.3-8.7,13.9
		c-3.3,3.1-4.1-3.1-4.5-5.2c-0.8-5.2-0.6-10.2,0.7-15.1c0.5-1.3,1.7-2,2.9-2.6c0.7-0.2,1.7-0.4,2.1,0.4c-0.3,4.3-2.4,8.6-0.9,12.8
		c4.1-7.5,10.2-16.1,18.1-20.5c1-0.5,1.7-0.9,2.6-0.5L290,118.9z"/>
	<path class="st2" d="M326.8,128.7c1.3-2.5,3.8-5,6.8-5c0.9,0.9,1.5,2.3,0.9,3.5c-0.9,1.4-1.9,2.7-2.8,4c2.8,2.9,8.7,5.7,7.1,10.6
		c-0.3,2.3-3.9-2-6.1-3.5l-3.3-2.1c-2.9,7.7-5.3,16-5.6,24.5c-0.2,2.9,0.2,7.5-4,6.8c-2.7-1.2-2.2-5.6-1.7-8.7
		c1.4-8.7,2.7-17.4,6.1-25.2c-4.8-3.6-10.6-5.6-16.4-7.3c-2.1-0.9-4.2-0.7-6-1.7c-1.7-2,0.4-3,1.9-3
		C312.4,121.6,319.8,124.9,326.8,128.7"/>
	<path class="st2" d="M249.5,119.4c-7.9,1.5-13.4,6.6-16.1,10.9c-1.1,1.5-2.9,5.5,0,6.1c4,0.6,7.3-2.6,9.9-5.5
		c1.3-3.5,4.3-10.2,6-10.4l0.1,0c1,0,2.2,0.1,2.3,1.5c-0.3,1.6-1,2.3-1.6,3.8c-2.4,5.1-3,11-4,16.7c-0.7,1.3-2.4,0.7-3.5,0.5
		c-1.1-1.1-0.7-2.6-1.2-4c-3.2,2.4-7.5,4.4-11.5,2.8c-2.9-1.2-3.7-4.2-3.3-7.1c0.9-9.1,8.9-15.5,16.9-18.4c2.6-0.7,4.9-1.7,7.3-0.5
		l0.7,0.6C252.1,117,252.6,118.4,249.5,119.4"/>
	<path class="st2" d="M304.4,128.6c0.4,2.3-0.8,4.6-1.9,6.5c-2.9,4.2-8.6,6.1-14.6,6.5c-4.1,0.1-3.5-1.2-3.5-1.2
		c-1.2,1.5-1.7,3.3-1.4,5.4c1.1,2.4,4.1,1.7,5.9,1.2c3.5-1.1,9.9-4.6,10.1-4c0,0,1.4,0.7,1.2,1.7c-0.1,2.9-0.2,5.9,2.3,7.9
		c1.7,1.1,3.6,1.7,5.3,1c1.3-0.6,2.3-1.2,2.4-3c0.1-5.2-6.9-9.1-4.6-14.6c1.4-2.7,4.2-4.2,7.1-4.5c2.4-0.1,3.6,0.9,5.2,1.9
		c1.2,1.6,2.4,3.1,1.9,5.4c-0.5,0.6-0.8,1.6-1.7,1.9c-1.5,0.3-2.2-1.1-2.8-2.1c-0.2-0.9-1.3-1.8-2.2-2.1c-1,0-1.7,0.3-1.9,1.4
		c0.4,3.5,2.9,6.2,3.5,9.7c0.5,3,0.2,6.2-1.2,8.7c-2.3,3.3-7.7,4.9-12.3,2.6c-3-1.7-5.6-4.5-5.7-8.3c-2.5,1-5.6,2.1-8.7,2.4
		c-2.8,0-6.1-0.1-8.3-2.4c-3-4.4-1.6-9.3,0.4-13.7c4.7-7.6,12.9-12.2,21.5-10.9C302.1,126.2,303.6,127.4,304.4,128.6 M297.8,131
		c-4.2,0.7-7.9,2.8-11.1,6.1c4.4,0.1,8.6-0.2,11.7-4.5C298.7,132.1,298.4,131,297.8,131"/>
	<path class="st2" d="M237.8,214.5c0.4,0.4,0.5,1.2,0.4,1.7c-2.2,1.4-5.5,1.1-7.4,2.9c-2.9,3.1-5.1,7.8-2.6,11.8
		c0.5,0.4,1.3,1.5,2.3,1.6c2.6,0.5,3.8-2.5,6.2-2.4c0.8,0.6,1,1.6,0.6,2.5c-1.6,2.5-4.3,4-7.6,4.2c-2.3,0.3-4.3-1.5-5.8-3
		c-2.8-5.6-0.6-11.3,3-15.8c2.4-2.8,6.2-3.6,9.9-3.9L237.8,214.5z"/>
	<path class="st2" d="M165.8,220.6c-0.3,0.9-0.3,2-1.6,2.4c-2.4,0.4-5,0.7-6.6,2.5c-1.7,3.1-1.3,6.5-2.4,9.9
		c-0.6,0.6-1.9,1.9-2.8,0.7c-1.4-1.3-0.4-3.5-0.2-5.1c1.8-3.7,1.8-8.1,5.3-10.9c1.3-0.3,1,1,1.4,1.6c1.9-0.9,4-2.4,6.3-2
		L165.8,220.6z"/>
	<path class="st2" d="M193.9,221.4c0.4,1.7-1.7,1.4-2.6,2c-4.3,1-7,5.1-7.6,8.9c-0.2,0.7,0.4,1.2,1,1.5c1.3-0.2,2.3-1.1,3.4-1.9
		c3.5-2.1,1.6-6.4,4.7-8.5c0.5-0.2,1.2,0.1,1.6,0.6c0.4,2-0.6,3.5-1,5.3c-1.2,2.6,1.2,6.4-1.4,8.2c-1,0-1.5-0.8-1.9-1.5
		c0.2-0.7-0.3-1.1-0.5-1.6c-2.2,1.5-4.6,3.9-7.9,2.9c-2.4-1.2-2-4.5-1.6-6.7c1.2-5.2,6.5-9.5,12-10.5
		C193.1,220,193.6,220.7,193.9,221.4"/>
	<path class="st2" d="M250.1,218.7c3.6,2.5,4.4,7.5,3.1,11.1c-0.8,2.4-2.8,4.6-5.3,5.6c-2.5,0.5-5,0.3-6.6-1.3
		c-2.5-3.5-2.6-8.2-0.6-11.8c1-1.2,2.4-2.9,4.4-2.4C245.6,218.1,248.5,217,250.1,218.7 M246.1,221.5c-0.4,1.1-1.6,1.5-2.2,2.4
		c-1.3,2.2-1.5,5-0.2,7.4c1.1,0.9,2,1.5,3.7,1.3c1-0.3,2-0.8,2.6-1.9c1.3-2.1,1.3-4.8,0.2-7C249.7,222.1,247.5,222.1,246.1,221.5"/>
	<path class="st2" d="M213.4,214.6c0.1,2.2-0.8,4.2-1.3,6.3c-0.7,4.7-0.5,10-0.1,14.7c-0.2,0.8-0.9,0.8-1.6,0.6
		c-0.8-0.6-1.2-1.7-1.6-2.7c-1.7,2.3-3.8,4.1-6.8,4.1c-1.5-0.3-3.2-1.1-4-2.5c-1.3-3.2-0.8-7.4,1.5-10.4c1.9-2.1,4.4-4.8,7.9-4.4
		l0.9,0.7c0.7-2.4,0.8-5.7,3.6-6.9C212.5,214.3,213.1,214.2,213.4,214.6 M208.3,222.6l-0.7,0.9c-2.7,0.8-6,2.5-6.4,5.4
		c-0.4,1.4-0.6,3.5,0.8,4.5c1.1,0.4,2.1,0.3,3.2-0.3C209,230.7,208,226.3,208.3,222.6"/>
	<path class="st2" d="M177,221.1c1.1,0.8,1.1,2.2,0.8,3.3c-1.3,3.4-5.5,5-8.7,5.3c-1.1,0.2-1.5-1-1.9-1.6c-0.9,1.4-1,3.4-0.5,4.9
		c0.7,1.4,2.6,1.2,4,1c1.8-0.8,3-2.1,4.8-3.1c0.6,0.2,1.1,0.9,1.1,1.5c-0.1,3.1-3.6,3.3-5.8,4.5c-2.1,0.7-4.5,0-6.4-0.6
		c-1.7-1.8-2-4.2-1.6-6.6c1.5-4.4,5.6-8.9,10.9-9.5C175,220.4,176.4,220.2,177,221.1 M174.1,223c-2.8-0.3-4.4,2.1-5.9,3.8
		c2.2-1.1,5.9-0.5,6.4-3.4L174.1,223z"/>
	<path class="st2" d="M152,215.2c0.8,1.4,1,3.4,0,5c-0.6,2-3.1,3.1-4.8,4.3c0.9,0.5,1.6,1.4,2,2.4c0.4,3.2-2,5.2-4.7,6.9
		c-3.3,1.6-7,1.5-10.8,0.6c-0.4,0.2-0.5,0.4-1,0.4c-0.8,0.1-0.7-0.6-1.1-0.9c-0.1-1.9,1.2-3.7,1.8-5.5c1.6-3.5,3.4-6.9,4.8-10.5
		c-0.8-0.2-2.1-0.2-2.3-1.2c-0.3-0.9,0.5-1.8,1.2-2.1C141.8,212.9,147.7,212.1,152,215.2 M143.4,216.4c-1.6,2-2,3.9-3,5.7
		c2.6,0.3,6,0.1,7.7-1.8c0.8-0.9,0.5-2.2-0.2-3C147,216.4,144.6,216.2,143.4,216.4 M139.5,225.1c-1.1,2.5-3.1,4.6-4,7.3
		c0.7,0.1,1.5,0.4,2.1,0.2c2.2,0.3,5.1-0.4,6.4-2.3c0.4-0.8,1-2.1,0.3-2.9C144,225.3,141.5,224.9,139.5,225.1"/>
	<path class="st2" d="M257.9,227.5c1.3,0.8,1,2.5,1.2,3.7c-0.3,0.9-0.4,2.1-1.7,2c-1.5-0.3-2.1-1.8-2.5-2.9c0-1,0.4-2,1.1-2.7
		C256.6,227.2,257.2,227.3,257.9,227.5"/>
	<path class="st7" d="M188.8,30.3c-0.2,3-0.7,6.6-1,9.6c-1.4,6.5-1.4,12.9-2,19.8c-0.7-0.2-1.9-0.5-2.7-0.6
		c-0.4-7.7-1.9-14.1-2.3-21.8c0.6-1,1.9-1,2.9-1.8c1.9-1.4,3.7-3,4.7-5.3L188.8,30.3z"/>
	<path class="st7" d="M206.5,36.9c-6.9,7.9-11.7,16.8-17.6,24.9c-0.6-0.4-1-0.9-2.1-1.5c2.7-6.8,4.9-13.9,7.6-20.7
		c3.9-0.9,9.2-0.8,11.9-4.3L206.5,36.9z"/>
	<path class="st7" d="M176.4,35.3c1.9,8.1,3.5,16.3,5.7,24.2c-1.6,0.4-1.8,0.6-2.8,1.3c-2.4-4.6-4.9-9.3-7.3-13.9
		c0.6-3.4,3.4-6.4,3.2-10.5C175.3,35.8,175.2,34.9,176.4,35.3"/>
	<path class="st7" d="M214.9,54.1v0.7c-8.4,2.4-24.6,10.4-24.6,10.4c-0.5-1.1-0.7-1.6-1.1-2.2c0.5-1.7,4-3.1,4.9-4.4
		c4.4-3.4,8.1-7,11.3-9.7C208.3,51.5,211.2,53.7,214.9,54.1"/>
	<path class="st7" d="M178.7,62.2c-0.5,1-1.2,1.9-1.3,3.1c-3.1-1.4-7.2-2.9-10.7-4.6c0.6-3.7,0.7-7.8-0.5-11.1l0.7-0.5L178.7,62.2z"
		/>
	<path class="st7" d="M241.2,76c-1.1-1.4-2.2-2.5-3.1-3.8c1-3.4,2-6.6,3.1-9.9c0.1-0.8,0.5-1.9-0.4-2.1c0,0-26.8,10.2-31.5,11.7
		c-7.7,0.3-16.2-0.1-24,0.1c-0.2-1.8-0.3-5-2.7-4.7c-1.7,1.2-1.6,3.9-1.9,5.6c0.2,2.8-0.4,5.9,2.3,6.7c1.5-0.4,2-2.8,2.2-4.3
		c2.2-0.1,4.2-0.1,5.9-0.2c0.2,0.8,0.1,1.3,0,2.3c3.3,1.8,6.8,3.2,10.1,5c3.2,1.5,4.9,2.7,8.2,3.6c-0.3-1-0.3-1.3-0.7-2.2
		c-0.5-2.3-0.9-4.7-0.2-7.1c-2.7-0.7-8.5-1.9-8.5-1.9c2.7,0,8.4,0,11.2,0.1c1.2,0.2,15.3,4.6,19.2,5.5l21.5,6.9l-0.1-0.7L241.2,76z"
		/>
	<path class="st7" d="M210.7,63.2c1,1.9,2,2.4,5,3.7c0.3,0.2-0.6,0.8-0.3,1c-3.5,0.4-8.6,0.7-12.6,1.1c-3.7,0-8,0.7-11.5,0.9
		c-0.1-0.5-0.6-3.2-0.6-3.2c6.8-1.8,12.5-4,19.3-5.7L210.7,63.2z"/>
	<path class="st7" d="M176.7,67.3l-0.3,4.4c-3,0.5-6.3-0.5-9.4,0.4c0-1.2-0.1-1.7-0.4-2.8c-1.2-1.9-1.9-3.9-3.6-5.6l0.3-0.7
		C167.4,64.8,172.5,65.6,176.7,67.3"/>
	<path class="st7" d="M177.1,77.8c-3.1,0.8-5.9,2.7-8.6,3.9c-1.1-2.4-3.7-5.1-6.6-6.1l0-0.4c4.9-0.4,9.6-0.4,14.7-1.2L177.1,77.8z"
		/>
	<path class="st7" d="M195.5,81.4c3,1.9,6.4,3.9,9.7,5.4c-0.6,1.2-0.6,2.4-0.9,3.5v6.6c0,0-9.9-9.8-14.6-15.2
		c0.7-1.2,0.8-1.9,0.9-2.8C192.6,79.8,193.8,80.5,195.5,81.4"/>
	<path class="st8" d="M169.3,158.4c2.6-11.5,4.1-24.8,5.7-36.7c-1.1-0.2-2.1-0.1-3,0c-0.4-1.9-0.1-2.5-0.1-3.8
		c1.2,0,2.7,0.2,3.8-0.1c0.6-5.5,1.4-11.5,2.4-16.8c-1.9-0.2-4.7,0.3-6.6,1V101c3.1-5.4,6-10.9,8.5-16.5c-0.2-0.8-1.3-0.4-1.4,0
		c-2.5,3-5.3,4.9-7.1,8c-1.7-2.1-4.3-3.8-7.1-4.3c1.2-0.7,1.7-0.9,2.6-1.4c3.5-2.3,7.4-4.4,11-6.3c0.2,1,1.1,2.2,1.7,3.1
		c1.3,1.4,2.4,2.3,4.1,2.4c3.4-0.3,4.9-3,4.9-3c2.9,5.3,7,10.1,10.8,14.9c-1.4,2.2-3.5,4.5-3.8,7.3c-1.4-0.2-1.3-1.4-1.9-2.6
		c-1.7-4.5-3.4-9.2-5.7-13.2c0.8,9.4,3.1,19,4.6,28.4l3.7,0.2c0.1,1.4,0.1,2.1,0,3.5c-0.4-0.3-2-0.1-2.8-0.1c0.3,2.3,0.7,3.9,1,6
		c1.4,9.6,3.7,21.3,5.6,30.5l3.2,0.1l0.2,3.3h-3.1c1.9,13.4,2.9,20.4,5.1,33.6h4.8c0.2,0.9,0.3,2.7,0.4,3.5h-13.1l-0.1-3.3l4.3-0.1
		c-1.3-8.2-1.9-11.5-3.1-19.8c-0.8-4.6-0.8-8.9-2-13.5c-2-0.1-4.9-0.1-7.9,0c0,1.5-0.1,2.1,0.1,3.7c0.3,14.5,0.8,22.3,1.5,36.9
		c1.1,0.5,2.3,0,4,0.4l0.1,3.1c-4.2,0.2-8.5,0.1-13,0.1l0-3.2l4.2-0.4l-1-35.5l-0.3-5.2c-4,0-8.7,0.1-11.8,0.1
		c-2,12.8-2.7,20.3-4,33.6c1.1,0,2.6,0.1,3.5,0.1c0.1,0.9,0.1,2.1,0.2,3.2c-3.7-0.1-8.3,0.2-12.2-0.1l0.3-3.2l4.2-0.2
		c1.5-13,2.5-20.6,4.7-33.2c-1.3-0.1-2.9,0-2.9,0l-0.1-3.3L169.3,158.4z M182.1,88.7c-0.9,10.1-2.8,19.5-3.9,29
		c1.5,0,3.3,0.2,4.8,0.1l-0.5-9.8c-0.4,0.2-1.3,0.9-1.6,0C182,101.9,182.7,95.3,182.1,88.7 M188,105c-0.7,0.4-2.2,0.9-2.6,1.6
		l0.6,11.1h3.9L188,105z M186.1,121.7c0.3,11.4,1.9,25.2,2.5,36.4l7.6-0.1c-1.6-11.4-4-24.6-5.7-36.3L186.1,121.7z M183.1,121.6
		c-1.8,0-3.6,0-5.2,0.1c-1.3,12.1-3.1,24.6-5.1,36.4l11.4-0.1L183.1,121.6z"/>
	<path class="st9" d="M263.9,216.4c-1.8-1.4-4-0.8-5.8,0.6c-2.2,1.8-2.1,4.7-1.1,7.1c0.8,1.1,2.2,1.4,3.7,1.4c1.6-0.4,3-1.5,3.8-2.8
		C265.7,220.5,265.9,217.8,263.9,216.4 M259.5,217.2c1.6-0.7,3.2-0.7,4.5,0.5c2,1.9-1,6.4-2.8,6.6c-1.1,0.1-2.5,0.2-3.2-0.6
		C256.8,222.1,257.1,218.3,259.5,217.2 M262.5,218.1c-0.8-0.5-1.7,0.5-2.3,1c0-0.1,0-0.1,0-0.2c0-0.2-0.3-0.4-0.4-0.3
		c-0.1,0.1-0.2,0.2-0.3,0.3c-0.4,1.3-0.5,1.9-0.7,3.1c-0.1,0.8,0,1.1,0.3,1.2c0.3,0,0.3-0.2,0.3-0.3c0.1-2,1.5-4.6,2.8-4.2
		c0.5,0.1,0.1,0.8-0.3,1.2c-0.4,0.3-1.3,0.8-1.4,1.3c-0.2,0.4,0.7,1.5,0.8,1.9c0.2,0.4,0.6,0.1,0.5-0.3c-0.1-0.3-0.5-1.6-0.5-1.6
		s1.7-1.1,1.9-2C263.3,218.6,263,218.4,262.5,218.1"/>
	<g>
		<path class="st10" d="M221.3,340.1c-0.1-0.1-0.1-0.2-0.2-0.3c0-0.2,0-0.3,0.1-0.4c4.9-5,14.3-6.7,18.3-3.3
			c0.3,0.3,0.6,0.6,0.8,0.9c0.1,0.2,0.1,0.4,0,0.5c-4.3,5.9-13.7,5.1-19,2.6C221.4,340.1,221.4,340.1,221.3,340.1"/>
		<path class="st10" d="M242.5,337.7c-1.2-0.6-2.3-1.8-3.1-3.4c-1.9-3.8-2.1-9.2-0.4-13c0.1-0.1,0.2-0.2,0.3-0.2
			c0.1,0,0.3,0,0.4,0.1c3.9,3.6,8.3,10.9,4.7,16.5c-0.1,0.1-0.3,0.5-0.5,0.5c-0.1,0.2-0.2,0-0.4-0.1
			C243.2,338,242.9,337.9,242.5,337.7"/>
		<path class="st10" d="M213.6,329.9c-0.1-0.1-0.1-0.2-0.1-0.3c0-0.1,0.1-0.3,0.2-0.3c5.2-3.6,13.9-3.6,16.8,0.2
			c0.2,0.3,0.4,0.6,0.6,0.9c0.1,0.2,0.2,0.2,0.1,0.3C226.3,335.3,218,333.1,213.6,329.9C213.6,330,213.6,330,213.6,329.9"/>
		<path class="st10" d="M209.9,320.6c0-0.1-0.1-0.2,0-0.2c0-0.1,0.1-0.2,0.2-0.3c4.9-2.4,12.3-1.1,14.3,2.5c0.2,0.3,0.3,0.6,0.4,0.9
			c0,0.2,0,0.3-0.1,0.4C219.8,327.1,213.1,323.9,209.9,320.6C209.9,320.7,209.9,320.6,209.9,320.6"/>
		<path class="st10" d="M226.3,320.9c-0.9-0.6-1.6-1.6-2.1-3c-1.1-3.2-0.7-7.3,1-10.2c0.1-0.1,0.2-0.2,0.3-0.2c0.1,0,0.2,0,0.3,0.1
			c2.6,3.1,5.4,9.2,2,13.2c-0.1,0.1-0.5,0.5-0.7,0.5C226.8,321.3,226.5,321,226.3,320.9"/>
		<path class="st10" d="M231.3,329.5c-0.8-0.8-1.4-2.1-1.6-3.7c-0.5-3.7,0.9-8.1,3.4-10.8c0.1-0.1,0.2-0.1,0.3-0.1
			c0.1,0,0.2,0.1,0.3,0.2c2.2,4,3.7,11.1-0.8,14.7c-0.1,0.1-0.7,0.4-0.8,0.3C231.8,329.9,231.6,329.7,231.3,329.5"/>
		<path class="st10" d="M210.2,301.9c0-0.1,0-0.3,0-0.4c0.1-0.2,0.2-0.2,0.3-0.2c5.1,0.1,11,7.3,11.6,14c0,0.5,0.1,1,0,1.5
			c0,0.2-0.1,0.4-0.3,0.5c-5.1,1.3-9.9-8.1-11.6-15.2C210.2,302,210.2,301.9,210.2,301.9"/>
		<g>
			<path class="st10" d="M226.9,322.7c0.1,0,0.3,8,21.4,17.8c10.7,5,12.5,4.6,12.5,4.6l1,1.3c0,0-14.2-4-24.3-10.8
				C227.4,328.9,226.9,322.7,226.9,322.7"/>
			<path class="st10" d="M261.8,346.8C261.8,346.8,261.7,346.8,261.8,346.8c-0.2,0-14.6-4-24.6-10.8c-9.3-6.3-10.4-12.1-10.5-13.2
				l0,0c0,0,0-0.1,0-0.1c0-0.1,0.2-0.3,0.3-0.2v0c0.2,0,0.2,0.2,0.2,0.3c0.2,1.4,2.3,8.7,21.2,17.6c10.3,4.8,12.3,4.6,12.4,4.6
				c0.1,0,0.2,0,0.2,0.1l1,1.3c0.1,0.1,0.1,0.2,0,0.3C261.9,346.7,261.9,346.8,261.8,346.8z M230.6,329.4c1.6,1.9,3.8,4,7,6.1
				c8.6,5.8,20.5,9.6,23.5,10.5l-0.5-0.6c-0.7,0-3.4-0.4-12.5-4.6C238.9,336.5,233.7,332.5,230.6,329.4z"/>
		</g>
		<path class="st10" d="M31,324.8c0,6.6-5.2,8.9-11.2,9H8.5c-0.3,0-0.6-0.2-0.6-0.6v-31.4c0-0.3,0.3-0.5,0.6-0.5h10.3
			c5.2,0,10.4,2.2,10.4,8.5c0,2.9-1.4,5.3-4,6.8C28.7,317.9,31,320.9,31,324.8 M13,306.3v8.2h3.9c4.5,0,7.4-0.7,7.4-4.1
			c0-2.7-1.9-4.1-5.5-4.1H13z M18.7,328.8c3.8,0.1,6.9-1.4,6.9-4.7c0-3.4-3.2-4.6-8-4.7H13v9.3H18.7z"/>
		<path class="st10" d="M40.7,333.6c-0.2-0.2-0.2-0.3-0.1-0.5l11.2-31.3c0.1-0.2,0.3-0.3,0.5-0.3H57c0.2,0,0.4,0.1,0.4,0.3
			l11.3,31.3c0.1,0.2,0,0.3,0,0.5c-0.1,0.2-0.3,0.3-0.5,0.3H64c-0.3,0-0.4-0.2-0.6-0.4l-2.8-7.8h-12l-2.8,7.8c0,0.2-0.2,0.4-0.4,0.4
			h-4.2C41,333.8,40.8,333.8,40.7,333.6 M50.3,320.9H59l-4.3-12L50.3,320.9z"/>
		<path class="st10" d="M100.6,333.5c-0.1,0.2-0.3,0.3-0.6,0.3h-4.5c-0.1,0-0.3-0.1-0.4-0.2l-10.7-16.1l-0.7,0.7v15.1
			c0,0.3-0.2,0.6-0.6,0.6h-3.9c-0.3,0-0.6-0.2-0.6-0.6v-31.4c0-0.3,0.3-0.5,0.6-0.5H83c0.4,0,0.6,0.2,0.6,0.5v10.5l11.5-10.9
			c0.1,0,0.2-0.1,0.3-0.1h4.5c0.3,0,0.6,0.2,0.6,0.5c0,0.2,0,0.4-0.2,0.5l-12.5,11.9l12.7,18.7C100.6,333.1,100.6,333.4,100.6,333.5
			"/>
		<path class="st10" d="M130.6,301.8v3.9c0,0.2-0.2,0.5-0.5,0.5h-15v8.2h12.4c0.3,0,0.5,0.3,0.5,0.6v3.8c0,0.3-0.2,0.6-0.5,0.6
			h-12.4v9.3h15c0.3,0,0.5,0.3,0.5,0.5v3.9c0,0.3-0.2,0.6-0.5,0.6h-19.5c-0.3,0-0.6-0.2-0.6-0.6v-31.4c0-0.3,0.3-0.5,0.6-0.5h19.5
			C130.4,301.4,130.6,301.6,130.6,301.8"/>
		<path class="st10" d="M162.3,311.2c0,5.3-2.9,8.5-7.5,9.6l7.6,12c0.1,0.2,0.1,0.4,0,0.6c-0.1,0.2-0.3,0.3-0.5,0.3h-4.7
			c-0.2,0-0.3-0.1-0.4-0.2l-7.6-12.4h-4v12c0,0.3-0.2,0.6-0.6,0.6h-3.9c-0.3,0-0.6-0.2-0.6-0.6v-31.4c0-0.3,0.3-0.5,0.6-0.5H152
			C158.8,301.4,162.3,304.2,162.3,311.2 M157.1,311.1c0-3.1-2-4.4-4.5-4.6l-7.3,0v9.4l6.2,0.1C153.7,316,157.1,315.1,157.1,311.1"/>
		<path class="st10" d="M195,302.1l-9.9,16.6v14.5c0,0.3-0.3,0.6-0.6,0.6h-3.8c-0.3,0-0.6-0.2-0.6-0.6v-14.5l-9.6-16.6
			c-0.2-0.2-0.2-0.4,0-0.6c0.1-0.1,0.3-0.2,0.4-0.2h4.4c0.2,0,0.3,0.1,0.4,0.2l6.9,11.4l7-11.4c0.1-0.1,0.3-0.2,0.4-0.2h4.4
			c0.2,0,0.3,0.1,0.5,0.2C195,301.7,195,301.9,195,302.1"/>
		<path class="st10" d="M285.6,328.8c0.3,0.2,0.3,0.5,0,0.8c-1.4,1.7-3.2,3-5.2,3.9c-2.1,1-4.3,1.4-6.6,1.4c-2.2,0-4.4-0.5-6.4-1.4
			c-2-0.9-3.9-2.1-5.4-3.8c-1.5-1.6-2.7-3.4-3.5-5.4c-0.9-2-1.3-4.3-1.4-6.5c0-2.4,0.4-4.8,1.4-6.9c1.6-4.1,4.8-7.5,8.9-9.3
			c2.1-0.9,4.3-1.4,6.5-1.4c2.3,0,4.5,0.4,6.5,1.4c1.4,0.6,2.5,1.4,3.7,2.4c0.1,0.1,0.2,0.2,0.2,0.3c0,0.2,0,0.4-0.1,0.5l-2.9,3.1
			c-0.1,0.2-0.2,0.2-0.3,0.2c-0.1,0-0.2,0-0.3-0.2c-0.9-0.8-1.9-1.4-3-1.9c-1.2-0.6-2.5-0.8-3.9-0.8c-2.4,0-4.7,0.8-6.7,2.2
			c-2,1.4-3.4,3.3-4.2,5.5c-0.6,1.5-0.9,3.1-0.9,4.8c0,1.7,0.3,3.4,0.9,4.9c1,2.2,2.4,4.2,4.5,5.5c2,1.3,4.2,2.1,6.6,2.1
			c1.7,0,3.1-0.4,4.6-1c1.3-0.8,2.5-1.7,3.5-3.1c0-0.1,0.1-0.1,0.2-0.1h0c0.2,0,0.3,0,0.4,0.1L285.6,328.8z"/>
		<path class="st10" d="M295.5,333.6c-0.2-0.2-0.2-0.3-0.1-0.5l11.2-31.3c0.1-0.2,0.3-0.3,0.5-0.3h4.6c0.2,0,0.4,0.1,0.4,0.3
			l11.3,31.3c0.1,0.2,0,0.3,0,0.5c-0.1,0.2-0.3,0.3-0.5,0.3h-4.2c-0.3,0-0.4-0.2-0.6-0.4l-2.8-7.8h-12l-2.8,7.8
			c0,0.2-0.2,0.4-0.4,0.4h-4.2C295.7,333.8,295.6,333.8,295.5,333.6 M305.1,320.9h8.6l-4.3-12L305.1,320.9z"/>
		<path class="st10" d="M353.8,301.8v3.9c0,0.2-0.2,0.5-0.5,0.5h-15v8.2h12.4c0.3,0,0.5,0.3,0.5,0.6v3.8c0,0.3-0.2,0.6-0.5,0.6
			h-12.4v13.7c0,0.3-0.2,0.6-0.6,0.6h-3.9c-0.3,0-0.6-0.2-0.6-0.6v-31.4c0-0.3,0.3-0.5,0.6-0.5h19.5
			C353.6,301.4,353.8,301.6,353.8,301.8"/>
		<path class="st10" d="M383.9,301.8v3.9c0,0.2-0.2,0.5-0.5,0.5h-15v8.2h12.4c0.3,0,0.5,0.3,0.5,0.6v3.8c0,0.3-0.2,0.6-0.5,0.6
			h-12.4v9.3h15c0.3,0,0.5,0.3,0.5,0.5v3.9c0,0.3-0.2,0.6-0.5,0.6h-19.5c-0.3,0-0.6-0.2-0.6-0.6v-31.4c0-0.3,0.3-0.5,0.6-0.5h19.5
			C383.7,301.4,383.9,301.6,383.9,301.8"/>
	</g>
</g>
</svg>
